HIERARCHY
ROOT Hips
{
	OFFSET 0.00000 0.00000 0.00000
	CHANNELS 6 Xposition Yposition Zposition Zrotation Yrotation Xrotation 
	JOINT LHipJoint
	{
		OFFSET 0 0 0
		CHANNELS 3 Zrotation Yrotation Xrotation
		JOINT LeftUpLeg
		{
			OFFSET 1.82298 -1.58346 0.87084
			CHANNELS 3 Zrotation Yrotation Xrotation
			JOINT LeftLeg
			{
				OFFSET 2.43790 -6.69809 0.00000
				CHANNELS 3 Zrotation Yrotation Xrotation
				JOINT LeftFoot
				{
					OFFSET 2.59288 -7.12389 0.00000
					CHANNELS 3 Zrotation Yrotation Xrotation
					JOINT LeftToeBase
					{
						OFFSET 0.14552 -0.39981 2.13160
						CHANNELS 3 Zrotation Yrotation Xrotation
						End Site
						{
							OFFSET 0.00000 -0.00000 1.09427
						}
					}
				}
			}
		}
	}
	JOINT RHipJoint
	{
		OFFSET 0 0 0
		CHANNELS 3 Zrotation Yrotation Xrotation
		JOINT RightUpLeg
		{
			OFFSET -1.77229 -1.58346 0.87084
			CHANNELS 3 Zrotation Yrotation Xrotation
			JOINT RightLeg
			{
				OFFSET -2.50703 -6.88801 0.00000
				CHANNELS 3 Zrotation Yrotation Xrotation
				JOINT RightFoot
				{
					OFFSET -2.61620 -7.18796 0.00000
					CHANNELS 3 Zrotation Yrotation Xrotation
					JOINT RightToeBase
					{
						OFFSET -0.15190 -0.41735 2.15974
						CHANNELS 3 Zrotation Yrotation Xrotation
						End Site
						{
							OFFSET -0.00000 -0.00000 1.10919
						}
					}
				}
			}
		}
	}
	JOINT LowerBack
	{
		OFFSET 0 0 0
		CHANNELS 3 Zrotation Yrotation Xrotation
		JOINT Spine
		{
			OFFSET -0.03602 2.12423 -0.30249
			CHANNELS 3 Zrotation Yrotation Xrotation
			JOINT Spine1
			{
				OFFSET 0.02717 2.10043 0.12912
				CHANNELS 3 Zrotation Yrotation Xrotation
				JOINT Neck
				{
					OFFSET 0 0 0
					CHANNELS 3 Zrotation Yrotation Xrotation
					JOINT Neck1
					{
						OFFSET -0.06371 1.88656 0.11602
						CHANNELS 3 Zrotation Yrotation Xrotation
						JOINT Head
						{
							OFFSET 0.08208 1.87759 -0.11505
							CHANNELS 3 Zrotation Yrotation Xrotation
							End Site
							{
								OFFSET 0.03382 1.93090 -0.05483
							}
						}
					}
				}
				JOINT LeftShoulder
				{
					OFFSET 0 0 0
					CHANNELS 3 Zrotation Yrotation Xrotation
					JOINT LeftArm
					{
						OFFSET 3.30903 1.40357 0.20156
						CHANNELS 3 Zrotation Yrotation Xrotation
						JOINT LeftForeArm
						{
							OFFSET 5.43301 -0.00000 0.00000
							CHANNELS 3 Zrotation Yrotation Xrotation
							JOINT LeftHand
							{
								OFFSET 3.15936 -0.00000 0.00000
								CHANNELS 3 Zrotation Yrotation Xrotation
								JOINT LeftFingerBase
								{
									OFFSET 0 0 0
									CHANNELS 3 Zrotation Yrotation Xrotation
									JOINT LeftHandIndex1
									{
										OFFSET 0.71283 -0.00000 0.00000
										CHANNELS 3 Zrotation Yrotation Xrotation
										End Site
										{
											OFFSET 0.57470 -0.00000 0.00000
										}
									}
								}
								JOINT LThumb
								{
									OFFSET 0 0 0
									CHANNELS 3 Zrotation Yrotation Xrotation
									End Site
									{
										OFFSET 0.58347 -0.00000 0.58347
									}
								}
							}
						}
					}
				}
				JOINT RightShoulder
				{
					OFFSET 0 0 0
					CHANNELS 3 Zrotation Yrotation Xrotation
					JOINT RightArm
					{
						OFFSET -3.12947 1.60037 -0.00464
						CHANNELS 3 Zrotation Yrotation Xrotation
						JOINT RightForeArm
						{
							OFFSET -5.34194 -0.00000 0.00000
							CHANNELS 3 Zrotation Yrotation Xrotation
							JOINT RightHand
							{
								OFFSET -3.19351 -0.00000 0.00000
								CHANNELS 3 Zrotation Yrotation Xrotation
								JOINT RightFingerBase
								{
									OFFSET 0 0 0
									CHANNELS 3 Zrotation Yrotation Xrotation
									JOINT RightHandIndex1
									{
										OFFSET -0.74386 -0.00000 0.00000
										CHANNELS 3 Zrotation Yrotation Xrotation
										End Site
										{
											OFFSET -0.59972 -0.00000 0.00000
										}
									}
								}
								JOINT RThumb
								{
									OFFSET 0 0 0
									CHANNELS 3 Zrotation Yrotation Xrotation
									End Site
									{
										OFFSET -0.60888 -0.00000 0.60888
									}
								}
							}
						}
					}
				}
			}
		}
	}
}
MOTION
Frames: 7
Frame Time: 0.0166667
0.00 0.00 0.00 0 0 0 0 0 0 -21 0 0 0 0 0 0 0 0 0 0 0 0 0 0 21 0 0 0 0 0 0 0 0 0 0 0 0 0 0 0 0 0 0 0 0 0 0 -16 0 0 21 0 0 11 0 0 0 -8 0 0 0 0 0 0 0 0 0 0 0 0 0 0 0 0 0 0 0 0 8 0 0 0 0 0 0 0 0 0 0 0 0 0 0 0 0 0
0.00 0.00 0.00 -24.5423 75.8380 -19.0216 0.0000 0.0000 0.0000 10.7271 9.9988 -37.8072 13.6713 19.0113 71.1982 3.1329 -3.9069 -32.6242 1.4398 -7.5860 -21.4634 0.0000 0.0000 0.0000 -3.9225 7.8230 -40.7215 -11.8132 -18.3106 65.3954 -0.5607 24.3654 -20.7801 -1.6492 8.0935 -22.9986 -4.3572 -4.1647 16.5082 5.6574 -5.7737 -1.1846 10.1225 -2.3520 -9.5252 -17.3172 -17.3533 7.7937 19.7518 -25.2293 3.0993 7.3538 -12.8296 4.4333 -0.0000 0.0000 0.0000 -80.0582 -11.2472 50.7506 44.8987 -50.7187 -22.1603 -0.0000 -0.0000 0.5223 25.7362 11.8313 5.6445 -7.1250 0.0000 -0.0000 -1.3220 43.0673 0.0631 -0.0000 0.0000 0.0000 49.7902 -1.2957 34.1179 -72.2054 58.7691 -44.6531 0.0000 -0.0000 -21.4263 -8.1046 -40.7838 5.3143 7.1250 -0.0000 -0.0000 38.2006 -67.3179 -21.7678
0.00 0.00 0.00 -35.4441 79.8143 -29.8010 0.0000 0.0000 0.0000 11.1665 10.1855 -44.5739 15.6616 19.5426 77.2219 2.9078 -3.9431 -31.3693 1.1895 -6.9211 -19.4817 0.0000 0.0000 0.0000 -7.2195 9.9129 -41.0202 -13.2344 -18.8652 69.8520 -0.2571 27.2728 -20.7976 -1.9115 8.6793 -24.7972 -4.3185 -3.9841 17.1253 5.2471 -5.5715 -0.8275 9.6317 -2.2709 -9.5614 -16.8053 -17.1634 7.7450 19.8004 -24.9231 3.1966 7.3523 -12.6699 4.3557 -0.0000 0.0000 0.0000 -80.0567 -15.1860 61.3874 67.6347 -58.0229 -40.7597 -0.0000 0.0000 -4.4513 24.8889 12.1514 5.5778 -7.1250 0.0000 -0.0000 -2.1313 43.3225 0.0883 -0.0000 0.0000 0.0000 47.6234 -3.0102 28.4665 -92.2717 59.9805 -61.9672 0.0000 -0.0000 -22.5664 -8.1094 -40.2689 5.2622 7.1250 -0.0000 -0.0000 37.3761 -66.9272 -20.9213
0.00 0.00 0.00 -40.8076 81.5885 -35.1449 0.0000 0.0000 0.0000 11.8813 11.0688 -48.5889 17.1792 19.8081 81.7271 3.1882 -5.7966 -32.6126 1.3210 -7.2794 -20.5457 0.0000 0.0000 0.0000 -8.0792 6.8210 -43.3847 -14.8676 -19.3564 74.8376 -1.4067 24.9226 -25.8430 -2.6282 10.0674 -29.1951 -4.7453 -3.9784 17.7290 5.0326 -5.6880 -0.7368 9.7256 -2.2987 -9.7606 -17.1029 -16.9523 7.3696 19.7656 -24.6823 3.7602 7.3580 -12.5222 4.5733 0.0000 -0.0000 0.0000 -81.0473 -17.7421 68.3192 89.3292 -59.9983 -59.4191 -0.0000 0.0000 -4.8819 23.9236 9.4856 4.1815 -7.1250 0.0000 -0.0000 -2.6769 40.3243 0.3089 0.0000 -0.0000 0.0000 46.4741 -2.6905 24.2354 -109.4437 58.5222 -76.7552 0.0000 -0.0000 -22.1965 -9.2779 -38.2479 5.7748 7.1250 -0.0000 -0.0000 33.2114 -65.6743 -17.4270
0.00 0.00 0.00 -32.5540 81.2957 -26.3150 0.0000 0.0000 0.0000 11.9479 12.3720 -52.1846 19.0093 19.9765 87.1024 3.4369 -4.4577 -34.1436 1.2867 -7.1879 -20.2733 0.0000 0.0000 0.0000 -10.3521 4.9285 -48.5564 -16.7777 -19.7492 80.5406 -2.1774 23.3295 -29.1726 -3.4832 11.4390 -33.7752 -5.0029 -3.5743 17.6854 4.3558 -5.2885 -0.7877 9.0175 -2.1077 -9.9132 -16.8772 -16.9116 7.1427 19.7594 -24.5745 3.6528 7.3271 -12.4589 4.5283 0.0000 -0.0000 0.0000 -81.4544 -20.2555 73.7876 107.5436 -58.8045 -75.1322 -0.0000 0.0000 -5.7963 24.2826 8.1205 3.6464 -7.1250 0.0000 -0.0000 -2.2289 38.8673 0.3369 0.0000 -0.0000 0.0000 46.5440 -1.0655 20.6130 -123.2641 55.3755 -88.3603 0.0000 -0.0000 -21.9563 -11.7112 -36.4296 7.0177 7.1250 -0.0000 -0.0000 28.3034 -64.8421 -14.1107
0.00 0.00 0.00 -4.0869 75.3357 3.3693 0.0000 0.0000 0.0000 9.1049 18.7401 -57.3377 22.5569 19.8425 97.4947 4.0813 -2.9364 -37.6731 1.1170 -6.7141 -18.8711 0.0000 0.0000 0.0000 -14.5767 -2.9516 -63.5327 -19.9836 -20.0000 89.9521 -2.2976 22.1345 -29.3853 -2.8559 10.4580 -30.4729 -6.9438 -2.4211 18.0606 3.1215 -4.3746 -1.5795 8.6288 -1.5084 -11.1545 -17.2345 -16.3869 6.0937 19.3361 -23.7854 4.1124 7.2488 -12.0139 4.6759 -0.0000 -0.0000 0.0000 -80.7413 -23.9460 76.8949 123.0873 -55.4295 -88.2147 -0.0000 0.0000 -6.3634 26.6570 5.8160 2.9121 -7.1250 0.0000 -0.0000 -0.0476 36.4818 0.0100 -0.0000 -0.0000 0.0000 46.9685 6.3172 16.6608 -135.5987 50.4718 -98.2240 0.0000 -0.0000 -16.5614 -22.5668 -32.4112 12.5575 7.1250 -0.0000 -0.0000 12.0325 -64.1033 -5.6087
0.00 0.00 0.00 4.9356 72.3558 14.0379 0.0000 0.0000 0.0000 9.7540 17.6654 -59.0894 22.7705 19.8150 98.1244 3.4735 0.3739 -35.5034 1.4550 -7.6243 -21.5785 0.0000 0.0000 0.0000 -16.2052 -3.1072 -72.7526 -22.9061 -19.7963 98.5245 -2.1406 3.2475 -26.8631 -0.8146 5.7595 -16.0883 -8.5247 -1.6738 22.5291 2.6480 -4.1362 -1.3918 9.3309 -1.1189 -13.4910 -16.1166 -16.5481 5.6121 20.8488 -23.3695 -0.7763 7.7213 -11.9014 3.2966 -0.0000 -0.0000 0.0000 -81.2053 -26.2702 75.8113 123.2006 -55.3949 -88.3080 -0.0000 0.0000 -9.8010 24.4851 5.6476 2.5661 -7.1250 0.0000 -0.0000 -1.8668 36.1759 0.4052 -0.0000 -0.0000 0.0000 53.1600 10.2559 10.6910 -131.2623 52.4735 -94.8305 0.0000 -0.0000 -17.5739 -29.4458 -36.1214 18.4067 7.1250 -0.0000 -0.0000 6.2907 -69.8514 -3.7440
